<svg width="180" height="29" viewBox="0 0 180 29" fill="none" xmlns="http://www.w3.org/2000/svg">
<path fill-rule="evenodd" clip-rule="evenodd" d="M14.5918 5C14.5728 4.9193 14.5531 4.83842 14.5325 4.75746C14.2648 3.70138 13.8433 2.55383 13.1559 1.65C12.4472 0.718018 11.4123 0 10 0C8.5877 0 7.5528 0.718018 6.84406 1.65C6.15673 2.55383 5.73518 3.70138 5.46747 4.75747C5.44695 4.83842 5.42722 4.9193 5.40825 5H3.78557C2.18414 5 0.856968 6.22455 0.750442 7.80044L0.00687452 18.8004C-0.110173 20.532 1.28239 22 3.042 22H16.958C18.7176 22 20.1102 20.532 19.9931 18.8004L19.2496 7.80044C19.143 6.22455 17.8159 5 16.2144 5H14.5918ZM5.94418 10C6.52516 10 6.95616 9.5684 6.95814 8.99817C6.9583 8.97438 6.95858 8.9506 6.95899 8.92682C6.95988 8.87413 6.9617 8.79455 6.96541 8.69194C6.97285 8.48652 6.98784 8.18999 7.018 7.83304C7.03941 7.57976 7.06824 7.29862 7.10693 7H12.8931C12.9318 7.29862 12.9606 7.57976 12.982 7.83305C13.0122 8.18999 13.0272 8.48652 13.0346 8.69194C13.0383 8.79455 13.0401 8.87413 13.041 8.92682C13.0414 8.95134 13.0418 8.97587 13.0419 9.0004C13.0419 9.0004 13.0419 10 14.0558 10C15.0698 10 15.0698 8.99866 15.0698 8.99866C15.0697 8.9636 15.0692 8.92854 15.0686 8.89349C15.0676 8.829 15.0654 8.7367 15.0612 8.62056C15.0528 8.38848 15.0361 8.06001 15.0029 7.66695C14.9856 7.46202 14.9637 7.23812 14.9359 7H16.2144C16.7482 7 17.1906 7.40818 17.2261 7.93348L17.9697 18.9335C18.0087 19.5107 17.5445 20 16.958 20H3.042C2.45547 20 1.99128 19.5107 2.03029 18.9335L2.77386 7.93348C2.80937 7.40818 3.25176 7 3.78557 7H5.06414C5.03633 7.23812 5.01441 7.46202 4.9971 7.66696C4.96389 8.06001 4.9472 8.38848 4.93879 8.62056C4.93459 8.7367 4.93245 8.829 4.93136 8.89349C4.93077 8.92785 4.93033 8.96221 4.93023 8.99658C4.92945 9.56716 5.36453 10 5.94418 10ZM7.4991 5H12.5009C12.2665 4.15322 11.9478 3.39466 11.5336 2.85C11.1017 2.28198 10.6156 2 10 2C9.38438 2 8.89835 2.28198 8.46639 2.85C8.0522 3.39466 7.73353 4.15322 7.4991 5Z" fill="#151618"/>
<path fill-rule="evenodd" clip-rule="evenodd" d="M49 11C51.7614 11 54 8.53756 54 5.5C54 2.46243 51.7614 0 49 0C46.2386 0 44 2.46243 44 5.5C44 8.53756 46.2386 11 49 11ZM49 8.8C47.3431 8.8 46 7.32254 46 5.5C46 3.67746 47.3431 2.2 49 2.2C50.6569 2.2 52 3.67746 52 5.5C52 7.32254 50.6569 8.8 49 8.8Z" fill="#151618"/>
<path fill-rule="evenodd" clip-rule="evenodd" d="M56.1029 13.1087C55.2604 12.2634 53.957 12.0811 52.9161 12.6987C52.7257 12.8117 52.5581 12.9151 52.4036 13.0105C51.9937 13.2635 51.6755 13.4598 51.2654 13.6283C50.75 13.8401 50.0835 14 49 14C47.9268 14 47.2493 13.8491 46.7261 13.6447C46.2635 13.464 45.8982 13.237 45.4168 12.9378C45.323 12.8795 45.2245 12.8183 45.1202 12.7543C44.0759 12.1132 42.7346 12.2622 41.8641 13.1419C41.4844 13.5256 41.0404 14.0219 40.6849 14.5626C40.346 15.0781 40 15.7638 40 16.5V19.0003C40 20.6574 41.3433 22 43 22H55C56.6567 22 58 20.6574 58 19.0003V16.5C58 15.7541 57.6447 15.0592 57.2996 14.5391C56.937 13.9927 56.4852 13.4923 56.1029 13.1087ZM53.9367 14.4187C54.1759 14.2768 54.478 14.3116 54.6863 14.5205C55.0214 14.8568 55.3724 15.2521 55.6331 15.645C55.9113 16.0642 56 16.352 56 16.5V19.0003C56 19.5524 55.5525 20 55 20H43C42.4475 20 42 19.5524 42 19.0003V16.5C42 16.3549 42.0855 16.0729 42.3561 15.6613C42.6102 15.2748 42.9536 14.8844 43.2858 14.5487C43.4941 14.3381 43.8111 14.2974 44.0739 14.4588C44.1566 14.5095 44.2409 14.5621 44.3269 14.6159C44.8094 14.9171 45.3492 15.254 45.9984 15.5076C46.793 15.8181 47.7242 16 49 16C50.3002 16 51.2313 15.8046 52.0254 15.4783C52.6006 15.242 53.1079 14.9282 53.5558 14.6512C53.6879 14.5695 53.8148 14.491 53.9367 14.4187Z" fill="#151618"/>
<path fill-rule="evenodd" clip-rule="evenodd" d="M174.039 18.1244C175.271 16.584 176.008 14.6301 176.008 12.5041C176.008 7.53127 171.977 3.5 167.004 3.5C162.031 3.5 158 7.53127 158 12.5041C158 17.4769 162.031 21.5082 167.004 21.5082C169.13 21.5082 171.084 20.7714 172.624 19.5392L178.292 25.207C178.683 25.5977 179.316 25.5977 179.707 25.207C180.098 24.8163 180.098 24.1828 179.707 23.7921L174.039 18.1244ZM167.004 19.5173C163.131 19.5173 159.991 16.3774 159.991 12.5041C159.991 8.6308 163.131 5.49087 167.004 5.49087C170.877 5.49087 174.017 8.6308 174.017 12.5041C174.017 16.3774 170.877 19.5173 167.004 19.5173Z" fill="#151618"/>
</svg>
